<svg xmlns="http://www.w3.org/2000/svg" xmlns:xlink="http://www.w3.org/1999/xlink" version="1.1" data-diagram-type="STATE" style="width:944px;height:800px;background:#1A1A2E;" width="944px" height="800px" viewBox="0 0 944 800" zoomAndPan="magnify" preserveAspectRatio="none" contentStyleType="text/css"><?plantuml 1.2026.7beta3?><defs/><g><rect x="0" y="0" width="944" height="800" fill="#1A1A2E" style="stroke:none;stroke-width:1;"/><g class="title" data-source-line="2"><text x="128.5854" y="35.4209" fill="#D9D3D0" font-size="22" lengthAdjust="spacing" textLength="685.126" font-weight="700" font-family="Verdana">مخطط آلة الحالة — دورة حياة الشكوى (Complaint Lifecycle)</text></g><g class="entity" data-qualified-name="Draft" id="ent0001" data-source-line="16"><rect x="142.46" y="733.4694" width="195.6426" height="52.5938" fill="#16213E" style="stroke:#0F3460;stroke-width:1;" rx="12.5" ry="12.5"/><line x1="142.46" y1="759.7663" x2="338.1026" y2="759.7663" style="stroke:#0F3460;stroke-width:1;"/><text x="222.5147" y="751.4645" fill="#E0E0E0" font-size="14" lengthAdjust="spacing" textLength="35.5332" font-family="Verdana">Draft</text><text x="147.46" y="777.7614" fill="#E0E0E0" font-size="14" lengthAdjust="spacing" textLength="175.6426" font-family="Verdana">الطالب يملأ الموضوع والوصف</text></g><g class="entity" data-qualified-name="LocalPending" id="ent0002" data-source-line="17"><rect x="12" y="58.6094" width="176.5703" height="68.8906" fill="#16213E" style="stroke:#0F3460;stroke-width:1;" rx="12.5" ry="12.5"/><line x1="12" y1="84.9063" x2="188.5703" y2="84.9063" style="stroke:#0F3460;stroke-width:1;"/><text x="53.7871" y="76.6045" fill="#E0E0E0" font-size="14" lengthAdjust="spacing" textLength="92.9961" font-family="Verdana">LocalPending</text><text x="17" y="102.9014" fill="#E0E0E0" font-size="14" lengthAdjust="spacing" textLength="156.5703" font-family="Verdana">محفوظة محلياً في SQLite</text><text x="21.4502" y="119.1982" fill="#E0E0E0" font-size="14" lengthAdjust="spacing" textLength="97.3711" font-family="Verdana">is_synced = 0</text></g><g class="entity" data-qualified-name="Pending" id="ent0003" data-source-line="18"><rect x="124.61" y="234.4994" width="215.3438" height="85.1875" fill="#16213E" style="stroke:#0F3460;stroke-width:1;" rx="12.5" ry="12.5"/><line x1="124.61" y1="260.7963" x2="339.9538" y2="260.7963" style="stroke:#0F3460;stroke-width:1;"/><text x="204.0495" y="252.4945" fill="#E0E0E0" font-size="14" lengthAdjust="spacing" textLength="56.4648" font-family="Verdana">Pending</text><text x="129.61" y="278.7914" fill="#E0E0E0" font-size="14" lengthAdjust="spacing" textLength="195.3438" font-family="Verdana">مستلمة في قاعدة بيانات السيرفر</text><text x="134.0602" y="295.0882" fill="#E0E0E0" font-size="14" lengthAdjust="spacing" textLength="97.3711" font-family="Verdana">is_synced = 1</text><text x="134.0602" y="311.3851" fill="#E0E0E0" font-size="14" lengthAdjust="spacing" textLength="119.123" font-family="Verdana">تنتظر مراجعة الإدارة</text></g><g class="entity" data-qualified-name="Reviewed" id="ent0004" data-source-line="19"><rect x="338.5" y="411.6894" width="191.5752" height="68.8906" fill="#16213E" style="stroke:#0F3460;stroke-width:1;" rx="12.5" ry="12.5"/><line x1="338.5" y1="437.9863" x2="530.0752" y2="437.9863" style="stroke:#0F3460;stroke-width:1;"/><text x="400.248" y="429.6845" fill="#E0E0E0" font-size="14" lengthAdjust="spacing" textLength="68.0791" font-family="Verdana">Reviewed</text><text x="343.5" y="455.9814" fill="#E0E0E0" font-size="14" lengthAdjust="spacing" textLength="171.5752" font-family="Verdana">تحت المراجعة من قبل الإدارة</text><text x="347.9502" y="472.2782" fill="#E0E0E0" font-size="14" lengthAdjust="spacing" textLength="145.9678" font-family="Verdana">معروضة في لوحة التحكم</text></g><g class="entity" data-qualified-name="Resolved" id="ent0005" data-source-line="20"><rect x="568.04" y="587.5794" width="116.4893" height="68.8906" fill="#16213E" style="stroke:#0F3460;stroke-width:1;" rx="12.5" ry="12.5"/><line x1="568.04" y1="613.8763" x2="684.5293" y2="613.8763" style="stroke:#0F3460;stroke-width:1;"/><text x="594.3471" y="605.5745" fill="#E0E0E0" font-size="14" lengthAdjust="spacing" textLength="63.875" font-family="Verdana">Resolved</text><text x="573.04" y="631.8714" fill="#E0E0E0" font-size="14" lengthAdjust="spacing" textLength="87.9375" font-family="Verdana">تم حل الشكوى</text><text x="577.4902" y="648.1682" fill="#E0E0E0" font-size="14" lengthAdjust="spacing" textLength="92.0391" font-family="Verdana">أُضيف رد ونتيجة</text></g><g class="entity" data-qualified-name="Rejected" id="ent0006" data-source-line="21"><rect x="278.64" y="587.5794" width="119.2852" height="68.8906" fill="#16213E" style="stroke:#0F3460;stroke-width:1;" rx="12.5" ry="12.5"/><line x1="278.64" y1="613.8763" x2="397.9252" y2="613.8763" style="stroke:#0F3460;stroke-width:1;"/><text x="307.5174" y="605.5745" fill="#E0E0E0" font-size="14" lengthAdjust="spacing" textLength="61.5303" font-family="Verdana">Rejected</text><text x="283.64" y="631.8714" fill="#E0E0E0" font-size="14" lengthAdjust="spacing" textLength="99.2852" font-family="Verdana">تم رفض الشكوى</text><text x="288.0902" y="648.1682" fill="#E0E0E0" font-size="14" lengthAdjust="spacing" textLength="93.2764" font-family="Verdana">مع سبب الرفض</text></g><g class="start_entity" data-qualified-name=".start." id="ent0007" data-source-line="14"><ellipse cx="457.29" cy="622.0194" rx="10" ry="10" fill="#003153" style="stroke:#D9D3D0;stroke-width:1;"/></g><g class="end_entity" data-qualified-name=".end." id="ent0015" data-source-line="35"><ellipse cx="636.29" cy="759.7594" rx="11" ry="11" fill="none" style="stroke:#D9D3D0;stroke-width:1;"/><ellipse cx="636.29" cy="759.7594" rx="6" ry="6" fill="#003153" style="stroke:#D9D3D0;stroke-width:1;"/></g><g class="entity" data-qualified-name="GMN18" id="ent0019" data-source-line="40"><path d="M223.2,65.3494 L223.2,89.0494 L188.9,93.0494 L223.2,97.0494 L223.2,120.7478 A0,0 0 0 0 223.2,120.7478 L375.368,120.7478 A0,0 0 0 0 375.368,120.7478 L375.368,75.3494 L365.368,65.3494 L223.2,65.3494 A0,0 0 0 0 223.2,65.3494" style="stroke:#D9D3D0;stroke-width:1;" fill="#003153"/><path d="M365.368,65.3494 L365.368,75.3494 L375.368,75.3494 L365.368,65.3494" style="stroke:#D9D3D0;stroke-width:1;" fill="#003153"/><text x="229.2" y="82.4163" fill="#D9D3D0" font-size="13" lengthAdjust="spacing" textLength="131.168" font-family="Verdana">يحتفظ التطبيق بالشكوى</text><text x="229.2" y="97.5491" fill="#D9D3D0" font-size="13" lengthAdjust="spacing" textLength="100.7627" font-family="Verdana">حتى عودة الإنترنت</text><text x="229.2" y="112.6819" fill="#D9D3D0" font-size="13" lengthAdjust="spacing" textLength="83.7256" font-family="Verdana">ثم يرفعها تلقائياً</text></g><g class="entity" data-qualified-name="GMN21" id="ent0022" data-source-line="46"><path d="M719.27,594.3194 L719.27,618.0194 L684.68,622.0194 L719.27,626.0194 L719.27,649.7178 A0,0 0 0 0 719.27,649.7178 L929.2969,649.7178 A0,0 0 0 0 929.2969,649.7178 L929.2969,604.3194 L919.2969,594.3194 L719.27,594.3194 A0,0 0 0 0 719.27,594.3194" style="stroke:#D9D3D0;stroke-width:1;" fill="#003153"/><path d="M919.2969,594.3194 L919.2969,604.3194 L929.2969,604.3194 L919.2969,594.3194" style="stroke:#D9D3D0;stroke-width:1;" fill="#003153"/><text x="725.27" y="611.3863" fill="#D9D3D0" font-size="13" lengthAdjust="spacing" textLength="110.9761" font-family="Verdana">يستطيع الطالب رؤية</text><text x="725.27" y="626.5191" fill="#D9D3D0" font-size="13" lengthAdjust="spacing" textLength="130.7617" font-family="Verdana">حالة شكواه في أي وقت</text><text x="725.27" y="641.6519" fill="#D9D3D0" font-size="13" lengthAdjust="spacing" textLength="189.0269" font-family="Verdana">عبر complaints_portal_screen</text></g><!--link *start* to Draft--><g class="link" data-entity-1="ent0007" data-entity-2="ent0001" id="lnk8" data-source-line="14" data-link-type="dependency"><path d="M455.37,632.2094 C451.41,648.8694 440.76,684.1394 418.29,703.4694 C395.84,722.7694 371.5019,733.946 343.3119,742.126" style="stroke:#E94560;stroke-width:1;" fill="none" id="*start*-to-Draft"/><polygon points="338.51,743.5194,348.2682,744.8528,343.3119,742.126,346.0387,737.1697,338.51,743.5194" fill="#E94560" style="stroke:#E94560;stroke-width:1;stroke-linejoin:miter;stroke-miterlimit:10;"/><text x="433.29" y="699.5363" fill="#D9D3D0" font-size="13" lengthAdjust="spacing" textLength="137.1982" font-family="Verdana">الطالب يبدأ كتابة الشكوى</text></g><!--link Draft to LocalPending--><g class="link" data-entity-1="ent0001" data-entity-2="ent0002" id="lnk9" data-source-line="23" data-link-type="dependency"><path d="M168.12,733.0894 C122.19,711.6194 71.29,675.8894 71.29,623.0194 C71.29,276.0894 71.29,276.0894 71.29,276.0894 C71.29,223.7694 81.9649,168.8865 90.5149,132.5465" style="stroke:#E94560;stroke-width:1;" fill="none" id="Draft-to-LocalPending"/><polygon points="91.66,127.6794,85.7051,135.5241,90.5149,132.5465,93.4925,137.3563,91.66,127.6794" fill="#E94560" style="stroke:#E94560;stroke-width:1;stroke-linejoin:miter;stroke-miterlimit:10;"/><text x="79.7739" y="443.1963" fill="#D9D3D0" font-size="13" lengthAdjust="spacing" textLength="70.7573" font-family="Verdana">تأكيد الإرسال</text><text x="72.29" y="458.3291" fill="#D9D3D0" font-size="13" lengthAdjust="spacing" textLength="85.7251" font-family="Verdana">[لا يوجد إنترنت]</text></g><!--link Draft to Pending--><g class="link" data-entity-1="ent0001" data-entity-2="ent0003" id="lnk10" data-source-line="25" data-link-type="dependency"><path d="M234.22,733.2294 C225.52,695.2194 209.95,621.3694 204.29,557.5794 C196.78,473.0594 211.4405,379.2245 222.2305,324.6345" style="stroke:#E94560;stroke-width:1;" fill="none" id="Draft-to-Pending"/><polygon points="223.2,319.7294,217.5308,327.7829,222.2305,324.6345,225.3789,329.3342,223.2,319.7294" fill="#E94560" style="stroke:#E94560;stroke-width:1;stroke-linejoin:miter;stroke-miterlimit:10;"/><text x="260.4353" y="523.6463" fill="#D9D3D0" font-size="13" lengthAdjust="spacing" textLength="70.7573" font-family="Verdana">تأكيد الإرسال</text><text x="258.7246" y="538.7791" fill="#D9D3D0" font-size="13" lengthAdjust="spacing" textLength="74.1787" font-family="Verdana">[يوجد إنترنت]</text><text x="205.29" y="553.9119" fill="#D9D3D0" font-size="13" lengthAdjust="spacing" textLength="181.0479" font-family="Verdana">/ POST /api/sync/complaints</text></g><!--link LocalPending to Pending--><g class="link" data-entity-1="ent0002" data-entity-2="ent0003" id="lnk11" data-source-line="27" data-link-type="dependency"><path d="M124.8,127.8694 C146.57,157.8894 175.535,197.8314 198.925,230.0914" style="stroke:#E94560;stroke-width:1;" fill="none" id="LocalPending-to-Pending"/><polygon points="201.86,234.1394,199.8154,224.5051,198.925,230.0914,193.3387,229.201,201.86,234.1394" fill="#E94560" style="stroke:#E94560;stroke-width:1;stroke-linejoin:miter;stroke-miterlimit:10;"/><text x="228.0905" y="170.5663" fill="#D9D3D0" font-size="13" lengthAdjust="spacing" textLength="73.8359" font-family="Verdana">عودة الإنترنت</text><text x="178.29" y="185.6991" fill="#D9D3D0" font-size="13" lengthAdjust="spacing" textLength="173.437" font-family="Verdana">/ SyncService.pushDrafts()</text><text x="200.0022" y="200.8319" fill="#D9D3D0" font-size="13" lengthAdjust="spacing" textLength="130.0127" font-family="Verdana">/ تحديث is_synced=1</text></g><!--link Pending to Reviewed--><g class="link" data-entity-1="ent0003" data-entity-2="ent0004" id="lnk12" data-source-line="29" data-link-type="dependency"><path d="M283,320.0294 C317.12,348.2494 357.677,381.7827 389.537,408.1327" style="stroke:#E94560;stroke-width:1;" fill="none" id="Pending-to-Reviewed"/><polygon points="393.39,411.3194,389.0039,402.5011,389.537,408.1327,383.9053,408.6658,393.39,411.3194" fill="#E94560" style="stroke:#E94560;stroke-width:1;stroke-linejoin:miter;stroke-miterlimit:10;"/><text x="381.7382" y="362.7563" fill="#D9D3D0" font-size="13" lengthAdjust="spacing" textLength="111.4014" font-family="Verdana">الإداري يفتح الشكوى</text><text x="358.29" y="377.8891" fill="#D9D3D0" font-size="13" lengthAdjust="spacing" textLength="158.2979" font-family="Verdana">/ تغيير الحالة إلى Reviewed</text></g><!--link Reviewed to Resolved--><g class="link" data-entity-1="ent0004" data-entity-2="ent0005" id="lnk13" data-source-line="31" data-link-type="dependency"><path d="M505.91,481.0594 C520.41,489.6094 534.97,499.5394 547.29,510.5794 C571.86,532.5994 590.598,559.2937 604.868,582.8337" style="stroke:#E94560;stroke-width:1;" fill="none" id="Reviewed-to-Resolved"/><polygon points="607.46,587.1094,606.2151,577.3395,604.868,582.8337,599.3739,581.4866,607.46,587.1094" fill="#E94560" style="stroke:#E94560;stroke-width:1;stroke-linejoin:miter;stroke-miterlimit:10;"/><text x="649.3669" y="523.6463" fill="#D9D3D0" font-size="13" lengthAdjust="spacing" textLength="156.3682" font-family="Verdana">الإداري يضغط "حل الشكوى"</text><text x="685.2407" y="538.7791" fill="#D9D3D0" font-size="13" lengthAdjust="spacing" textLength="84.6206" font-family="Verdana">[مع إضافة الرد]</text><text x="587.29" y="553.9119" fill="#D9D3D0" font-size="13" lengthAdjust="spacing" textLength="280.522" font-family="Verdana">/ POST /dashboard/complaints/{id}/resolve</text></g><!--link Reviewed to Rejected--><g class="link" data-entity-1="ent0004" data-entity-2="ent0006" id="lnk14" data-source-line="33" data-link-type="dependency"><path d="M426.06,481.0094 C419.67,503.6694 409.51,533.6194 395.29,557.5794 C389.09,568.0194 384.3326,574.543 376.2226,583.663" style="stroke:#E94560;stroke-width:1;" fill="none" id="Reviewed-to-Rejected"/><polygon points="372.9,587.3994,381.8697,583.332,376.2226,583.663,375.8916,578.0158,372.9,587.3994" fill="#E94560" style="stroke:#E94560;stroke-width:1;stroke-linejoin:miter;stroke-miterlimit:10;"/><text x="417.29" y="531.1463" fill="#D9D3D0" font-size="13" lengthAdjust="spacing" textLength="121.8242" font-family="Verdana">الإداري يرفض الشكوى</text><text x="429.8234" y="546.2791" fill="#D9D3D0" font-size="13" lengthAdjust="spacing" textLength="96.7573" font-family="Verdana">[مع سبب الرفض]</text></g><!--link Resolved to *end*--><g class="link" data-entity-1="ent0005" data-entity-2="ent0015" id="lnk16" data-source-line="35" data-link-type="dependency"><path d="M628.78,656.9194 C631,687.0794 633.7414,724.303 635.1614,743.513" style="stroke:#E94560;stroke-width:1;" fill="none" id="Resolved-to-*end*"/><polygon points="635.53,748.4994,638.8556,739.229,635.1614,743.513,630.8774,739.8187,635.53,748.4994" fill="#E94560" style="stroke:#E94560;stroke-width:1;stroke-linejoin:miter;stroke-miterlimit:10;"/><text x="632.29" y="699.5363" fill="#D9D3D0" font-size="13" lengthAdjust="spacing" textLength="91.2983" font-family="Verdana">انتهاء دورة الحياة</text></g><!--link Rejected to Draft--><g class="link" data-entity-1="ent0006" data-entity-2="ent0001" id="lnk17" data-source-line="37" data-link-type="dependency"><path d="M292.86,656.7994 C283.13,665.6294 273.59,675.7194 266.29,686.4694 C256.69,700.5894 251.5461,713.8468 247.4461,728.3968" style="stroke:#E94560;stroke-width:1;" fill="none" id="Rejected-to-Draft"/><polygon points="246.09,733.2094,252.3811,725.6316,247.4461,728.3968,244.681,723.4618,246.09,733.2094" fill="#E94560" style="stroke:#E94560;stroke-width:1;stroke-linejoin:miter;stroke-miterlimit:10;"/><text x="267.29" y="699.5363" fill="#D9D3D0" font-size="13" lengthAdjust="spacing" textLength="146.5039" font-family="Verdana">الطالب يُعدّل ويُعيد الإرسال</text></g><?plantuml-src ZLJHJXDH47s_Np7Y2vXWMq4IJJHHr2SIqVe6X2pR2woKtMPtWH12Oh5WgG_6n1_GYYrLR1fKA5zoxwjVufcxstQxe364xUxScJDdpioTQ-6gN9UqLDoG9TznGn4wOL6ItbVVrPaw8_L9LzGngGP-Jippc7w_-a2ghQkgmoSdkgOQFPSV-hMkwaCQdVRMIqKBW3JZB4jxsoxACI62DSSjMRwrJakMlRRYUnjkOTehUZvTpravwvPCU0IX5KhQ4KGFB_bEtSfDI3xn_8BqOsjsUM9oAWlh4yyDOvlCyXzi3tpVs-ePxqpUDexvqFB3jF5nFqrisXLYxiO2ZO_VfqU-jHpItQZMC_Di4kflghQgatwjMf2YcH83PPjI_XAiz_5IDrQyLjKl_7S93pPKrKzTZkDdFDigpagtuBWhW46BJdGP7kV8Ppugt0dzbc2jKVxPZ1FAUPUSO37OTcrPe7kKZQ66K4vLYrCp2WVgFTJGHK6eecaG3s1eHRHFOUZeikgaW7Fu1im113XN7KRj8EWRS68jZW3Ou8696JoNcuxSGYpqQ66oMh40YJYeSS1ichgIma0oU7R117BrURDQ9xrym8Jw-_riWLVSZBFfVHxQob2Fc7vTluFuDLqcv6YZ0rmEwlsM8FrIsc42XgNubGPYQWHLcsYlEJ9UGaJzvp5ATH9awuYk8MbSPmVXU9jtv_3Pu26fWWQEZup47Nuk917_4-nAd7atGxDFyoyeOvMS3BSqO_TkRo344DbKhYxmslqM3p0PCW-WlFGt7LlUB6q4guPiC3h6PwRbRP3yEfYYUpaXaccI4vBeFdSQFMA4bF06zWA76D7XXGLg5Iob7g8GVUmeqM0uqeamNXVOWYEN1cQ4vJIDFe9F0uHY5J0w2KKBLh2wv5b-8I5fPiSfx6RyAEibBeC9kyJbgccRkthQ5XWtBejnUO4PI1xfDu3ycDZWHgfeYtDOpE0V-muN1Gj2luScO64-hnWu8LmFbyPtLbP3yfQ7fXvx5X6uzY1xthknPxnlz1xMpj3w93AEXtyVDtRvYliOQzJb2ibiDTvbNwArA92Pc56QLq-eYDCf4y5lTxXe5FKPrkE8JJnMXY4-taGR21UlneBiHOowgAD3WxulbZm_j8gBWUrBwVRf_040?></g></svg>